<svg xmlns="http://www.w3.org/2000/svg" width="24" height="24" viewBox="0 0 24 24" fill="none"><path d="M0 12C0 5.37258 5.37258 0 12 0C18.6274 0 24 5.37258 24 12C24 18.6274 18.6274 24 12 24C5.37258 24 0 18.6274 0 12Z" fill="#00C950"></path><g clip-path="url(#clip0_104_1587)"><path d="M18.534 10.6667C18.8385 12.1609 18.6215 13.7143 17.9192 15.0679C17.217 16.4214 16.0719 17.4934 14.675 18.1049C13.2781 18.7164 11.7137 18.8305 10.2429 18.4282C8.77198 18.026 7.48346 17.1316 6.59218 15.8943C5.7009 14.657 5.26075 13.1515 5.34511 11.6289C5.42947 10.1063 6.03325 8.65872 7.05576 7.52744C8.07828 6.39616 9.45772 5.64961 10.964 5.4123C12.4704 5.17498 14.0125 5.46123 15.3333 6.22333" stroke="white" stroke-width="1.33333" stroke-linecap="round" stroke-linejoin="round"></path><path d="M10 11.3334L12 13.3334L18.6667 6.66675" stroke="white" stroke-width="1.33333" stroke-linecap="round" stroke-linejoin="round"></path></g><defs><clipPath id="clip0_104_1587"><rect width="16" height="16" fill="white" transform="translate(4 4)"></rect></clipPath></defs></svg>