<svg xmlns="http://www.w3.org/2000/svg" width="20" height="20" viewBox="0 0 20 20" fill="none"><path d="M5.00002 7.49992H3.75002C3.19749 7.49992 2.66758 7.28043 2.27688 6.88972C1.88618 6.49902 1.66669 5.96912 1.66669 5.41659C1.66669 4.86405 1.88618 4.33415 2.27688 3.94345C2.66758 3.55275 3.19749 3.33325 3.75002 3.33325H5.00002" stroke="white" stroke-width="1.66667" stroke-linecap="round" stroke-linejoin="round"></path><path d="M15 7.49992H16.25C16.8025 7.49992 17.3324 7.28043 17.7231 6.88972C18.1138 6.49902 18.3333 5.96912 18.3333 5.41659C18.3333 4.86405 18.1138 4.33415 17.7231 3.94345C17.3324 3.55275 16.8025 3.33325 16.25 3.33325H15" stroke="white" stroke-width="1.66667" stroke-linecap="round" stroke-linejoin="round"></path><path d="M3.33331 18.3333H16.6666" stroke="white" stroke-width="1.66667" stroke-linecap="round" stroke-linejoin="round"></path><path d="M8.33331 12.2166V14.1666C8.33331 14.6249 7.94165 14.9832 7.52498 15.1749C6.54165 15.6249 5.83331 16.8666 5.83331 18.3332" stroke="white" stroke-width="1.66667" stroke-linecap="round" stroke-linejoin="round"></path><path d="M11.6667 12.2166V14.1666C11.6667 14.6249 12.0584 14.9832 12.475 15.1749C13.4584 15.6249 14.1667 16.8666 14.1667 18.3332" stroke="white" stroke-width="1.66667" stroke-linecap="round" stroke-linejoin="round"></path><path d="M15 1.66675H5V7.50008C5 8.82616 5.52678 10.0979 6.46447 11.0356C7.40215 11.9733 8.67392 12.5001 10 12.5001C11.3261 12.5001 12.5979 11.9733 13.5355 11.0356C14.4732 10.0979 15 8.82616 15 7.50008V1.66675Z" stroke="white" stroke-width="1.66667" stroke-linecap="round" stroke-linejoin="round"></path></svg>