<svg xmlns="http://www.w3.org/2000/svg" width="20" height="20" viewBox="0 0 20 20" fill="none"><g clip-path="url(#clip0_101_527)"><path d="M9.60416 1.91225C9.64068 1.83847 9.6971 1.77636 9.76704 1.73294C9.83698 1.68951 9.91767 1.6665 9.99999 1.6665C10.0823 1.6665 10.163 1.68951 10.233 1.73294C10.3029 1.77636 10.3593 1.83847 10.3958 1.91225L12.3208 5.81142C12.4476 6.06805 12.6348 6.29009 12.8663 6.45846C13.0979 6.62683 13.3668 6.73651 13.65 6.77808L17.955 7.40808C18.0366 7.4199 18.1132 7.45431 18.1762 7.50741C18.2393 7.56052 18.2862 7.63021 18.3117 7.70859C18.3372 7.78697 18.3402 7.87092 18.3205 7.95095C18.3007 8.03097 18.259 8.10387 18.2 8.16141L15.0867 11.1931C14.8813 11.3932 14.7277 11.6402 14.639 11.9128C14.5503 12.1854 14.5292 12.4755 14.5775 12.7581L15.3125 17.0414C15.3269 17.1229 15.3181 17.2069 15.2871 17.2837C15.2561 17.3604 15.2041 17.4269 15.1371 17.4756C15.0701 17.5242 14.9908 17.5531 14.9082 17.5588C14.8256 17.5646 14.7431 17.547 14.67 17.5081L10.8217 15.4847C10.5681 15.3516 10.286 15.282 9.99958 15.282C9.71318 15.282 9.43106 15.3516 9.17749 15.4847L5.32999 17.5081C5.25694 17.5468 5.17449 17.5642 5.09204 17.5583C5.00958 17.5524 4.93043 17.5236 4.86357 17.4749C4.79672 17.4263 4.74485 17.3599 4.71387 17.2833C4.68289 17.2066 4.67404 17.1228 4.68833 17.0414L5.42249 12.7589C5.47099 12.4762 5.44998 12.1859 5.36128 11.9131C5.27257 11.6403 5.11883 11.3932 4.91333 11.1931L1.79999 8.16225C1.74049 8.10478 1.69832 8.03175 1.6783 7.95148C1.65827 7.87121 1.66119 7.78693 1.68673 7.70824C1.71226 7.62955 1.75938 7.55962 1.82272 7.5064C1.88607 7.45319 1.96308 7.41883 2.04499 7.40725L6.34916 6.77808C6.63271 6.73683 6.90199 6.6273 7.13381 6.4589C7.36564 6.29051 7.55308 6.06831 7.67999 5.81142L9.60416 1.91225Z" stroke="#E5FF00" stroke-width="1.66667" stroke-linecap="round" stroke-linejoin="round"></path></g><defs><clipPath id="clip0_101_527"><rect width="20" height="20" fill="white"></rect></clipPath></defs></svg>