<svg xmlns="http://www.w3.org/2000/svg" width="16" height="16" viewBox="0 0 16 16" fill="none"><g clip-path="url(#clip0_104_2761)"><path d="M14.534 6.66666C14.8385 8.16086 14.6215 9.71427 13.9192 11.0679C13.217 12.4214 12.0719 13.4934 10.675 14.1049C9.27809 14.7164 7.71375 14.8305 6.24286 14.4282C4.77198 14.026 3.48346 13.1316 2.59218 11.8943C1.7009 10.657 1.26075 9.15148 1.34511 7.62892C1.42947 6.10635 2.03325 4.65872 3.05576 3.52744C4.07828 2.39616 5.45772 1.64961 6.96404 1.4123C8.47036 1.17498 10.0125 1.46123 11.3333 2.22333" stroke="#00C950" stroke-width="1.33333" stroke-linecap="round" stroke-linejoin="round"></path><path d="M6 7.33341L8 9.33341L14.6667 2.66675" stroke="#00C950" stroke-width="1.33333" stroke-linecap="round" stroke-linejoin="round"></path></g><defs><clipPath id="clip0_104_2761"><rect width="16" height="16" fill="white"></rect></clipPath></defs></svg>