<svg xmlns="http://www.w3.org/2000/svg" width="20" height="20" viewBox="0 0 20 20" fill="none"><path d="M16.6666 10.8333C16.6666 15 13.75 17.0833 10.2833 18.2916C10.1018 18.3532 9.90459 18.3502 9.72498 18.2833C6.24998 17.0833 3.33331 15 3.33331 10.8333V4.99997C3.33331 4.77895 3.42111 4.56699 3.57739 4.41071C3.73367 4.25443 3.94563 4.16663 4.16665 4.16663C5.83331 4.16663 7.91665 3.16663 9.36665 1.89997C9.54319 1.74913 9.76777 1.66626 9.99998 1.66626C10.2322 1.66626 10.4568 1.74913 10.6333 1.89997C12.0916 3.17497 14.1666 4.16663 15.8333 4.16663C16.0543 4.16663 16.2663 4.25443 16.4226 4.41071C16.5788 4.56699 16.6666 4.77895 16.6666 4.99997V10.8333Z" stroke="#364153" stroke-width="1.66667" stroke-linecap="round" stroke-linejoin="round"></path></svg>