<svg xmlns="http://www.w3.org/2000/svg" width="20" height="20" viewBox="0 0 20 20" fill="none"><g clip-path="url(#clip0_101_894)"><path d="M5 9.1665H8.33333" stroke="white" stroke-width="1.66667" stroke-linecap="round" stroke-linejoin="round"></path><path d="M6.66669 7.5V10.8333" stroke="white" stroke-width="1.66667" stroke-linecap="round" stroke-linejoin="round"></path><path d="M12.5 10H12.5083" stroke="white" stroke-width="1.66667" stroke-linecap="round" stroke-linejoin="round"></path><path d="M15 8.3335H15.0083" stroke="white" stroke-width="1.66667" stroke-linecap="round" stroke-linejoin="round"></path><path d="M14.4334 4.1665H5.56669C4.74192 4.1667 3.94651 4.47265 3.33422 5.02522C2.72192 5.5778 2.33623 6.33775 2.25169 7.15817C2.24669 7.2015 2.24335 7.24234 2.23752 7.28484C2.17002 7.8465 1.66669 12.0465 1.66669 13.3332C1.66669 13.9962 1.93008 14.6321 2.39892 15.1009C2.86776 15.5698 3.50365 15.8332 4.16669 15.8332C5.00002 15.8332 5.41669 15.4165 5.83335 14.9998L7.01169 13.8215C7.32417 13.5089 7.74803 13.3333 8.19002 13.3332H11.81C12.252 13.3333 12.6759 13.5089 12.9884 13.8215L14.1667 14.9998C14.5834 15.4165 15 15.8332 15.8334 15.8332C16.4964 15.8332 17.1323 15.5698 17.6011 15.1009C18.07 14.6321 18.3334 13.9962 18.3334 13.3332C18.3334 12.0457 17.83 7.8465 17.7625 7.28484C17.7567 7.24317 17.7534 7.2015 17.7484 7.159C17.664 6.33843 17.2784 5.57828 16.6661 5.02553C16.0538 4.47279 15.2582 4.16672 14.4334 4.1665Z" stroke="white" stroke-width="1.66667" stroke-linecap="round" stroke-linejoin="round"></path></g><defs><clipPath id="clip0_101_894"><rect width="20" height="20" fill="white"></rect></clipPath></defs></svg>