<svg xmlns="http://www.w3.org/2000/svg" width="24" height="24" viewBox="0 0 24 24" fill="none"><path d="M11.562 3.26568C11.6052 3.18729 11.6686 3.12191 11.7456 3.07638C11.8227 3.03085 11.9105 3.00684 12 3.00684C12.0895 3.00684 12.1773 3.03085 12.2544 3.07638C12.3314 3.12191 12.3948 3.18729 12.438 3.26568L15.39 8.86968C15.4604 8.99944 15.5586 9.11201 15.6777 9.1993C15.7968 9.28659 15.9337 9.34643 16.0786 9.37454C16.2235 9.40265 16.3729 9.39831 16.5159 9.36186C16.659 9.3254 16.7922 9.25772 16.906 9.16368L21.183 5.49968C21.2651 5.4329 21.3663 5.3939 21.472 5.38828C21.5776 5.38266 21.6824 5.41073 21.7711 5.46843C21.8598 5.52613 21.9279 5.61049 21.9657 5.70937C22.0034 5.80825 22.0087 5.91655 21.981 6.01868L19.147 16.2647C19.0891 16.4743 18.9645 16.6594 18.792 16.7919C18.6195 16.9243 18.4085 16.9969 18.191 16.9987H5.81C5.59233 16.9972 5.38111 16.9247 5.20839 16.7922C5.03567 16.6597 4.91089 16.4745 4.853 16.2647L2.02 6.01968C1.99225 5.91755 1.99762 5.80925 2.03534 5.71037C2.07306 5.61149 2.14118 5.52713 2.2299 5.46943C2.31862 5.41173 2.42335 5.38366 2.52904 5.38928C2.63472 5.3949 2.73589 5.4339 2.818 5.50068L7.094 9.16468C7.2078 9.25872 7.341 9.3264 7.48406 9.36286C7.62712 9.39931 7.77647 9.40365 7.9214 9.37554C8.06632 9.34743 8.20323 9.28759 8.32229 9.2003C8.44135 9.11301 8.5396 9.00044 8.61 8.87068L11.562 3.26568Z" stroke="#0E4B3A" stroke-width="2" stroke-linecap="round" stroke-linejoin="round"></path><path d="M5 21H19" stroke="#0E4B3A" stroke-width="2" stroke-linecap="round" stroke-linejoin="round"></path></svg>