<svg xmlns="http://www.w3.org/2000/svg" width="20" height="20" viewBox="0 0 20 20" fill="none"><path d="M16.6667 6.66667H3.33333C2.8731 6.66667 2.5 7.03977 2.5 7.50001V9.16667C2.5 9.62691 2.8731 10 3.33333 10H16.6667C17.1269 10 17.5 9.62691 17.5 9.16667V7.50001C17.5 7.03977 17.1269 6.66667 16.6667 6.66667Z" stroke="#0E4B3A" stroke-width="1.66667" stroke-linecap="round" stroke-linejoin="round"></path><path d="M10 6.66667V17.5" stroke="#0E4B3A" stroke-width="1.66667" stroke-linecap="round" stroke-linejoin="round"></path><path d="M15.8333 10V15.8333C15.8333 16.2754 15.6577 16.6993 15.3452 17.0118C15.0326 17.3244 14.6087 17.5 14.1667 17.5H5.83332C5.3913 17.5 4.96737 17.3244 4.65481 17.0118C4.34225 16.6993 4.16666 16.2754 4.16666 15.8333V10" stroke="#0E4B3A" stroke-width="1.66667" stroke-linecap="round" stroke-linejoin="round"></path><path d="M6.24999 6.66667C5.69746 6.66667 5.16755 6.44717 4.77685 6.05647C4.38615 5.66577 4.16666 5.13587 4.16666 4.58333C4.16666 4.0308 4.38615 3.50089 4.77685 3.11019C5.16755 2.71949 5.69746 2.5 6.24999 2.5C7.05389 2.48599 7.84168 2.87605 8.5106 3.6193C9.17953 4.36255 9.69855 5.4245 9.99999 6.66667C10.3014 5.4245 10.8205 4.36255 11.4894 3.6193C12.1583 2.87605 12.9461 2.48599 13.75 2.5C14.3025 2.5 14.8324 2.71949 15.2231 3.11019C15.6138 3.50089 15.8333 4.0308 15.8333 4.58333C15.8333 5.13587 15.6138 5.66577 15.2231 6.05647C14.8324 6.44717 14.3025 6.66667 13.75 6.66667" stroke="#0E4B3A" stroke-width="1.66667" stroke-linecap="round" stroke-linejoin="round"></path></svg>