<svg xmlns="http://www.w3.org/2000/svg" width="16" height="16" viewBox="0 0 16 16" fill="none"><path d="M5.66666 9.66667C6.10869 9.66667 6.53261 9.49107 6.84517 9.17851C7.15773 8.86595 7.33333 8.44203 7.33333 8C7.33333 7.08 6.99999 6.66667 6.66666 6C5.95199 4.57133 6.51733 3.29733 7.99999 2C8.33333 3.66667 9.33333 5.26667 10.6667 6.33333C12 7.4 12.6667 8.66667 12.6667 10C12.6667 10.6128 12.546 11.2197 12.3114 11.7859C12.0769 12.352 11.7332 12.8665 11.2998 13.2998C10.8665 13.7332 10.352 14.0769 9.78585 14.3114C9.21966 14.546 8.61283 14.6667 7.99999 14.6667C7.38716 14.6667 6.78032 14.546 6.21414 14.3114C5.64795 14.0769 5.1335 13.7332 4.70016 13.2998C4.26682 12.8665 3.92308 12.352 3.68856 11.7859C3.45404 11.2197 3.33333 10.6128 3.33333 10C3.33333 9.23133 3.62199 8.47067 3.99999 8C3.99999 8.44203 4.17559 8.86595 4.48815 9.17851C4.80071 9.49107 5.22463 9.66667 5.66666 9.66667Z" stroke="#0E4B3A" stroke-width="1.33333" stroke-linecap="round" stroke-linejoin="round"></path></svg>