<svg xmlns="http://www.w3.org/2000/svg" width="20" height="20" viewBox="0 0 20 20" fill="none"><g clip-path="url(#clip0_101_608)"><path d="M9.60416 1.91274C9.64068 1.83895 9.6971 1.77685 9.76704 1.73342C9.83698 1.69 9.91767 1.66699 9.99999 1.66699C10.0823 1.66699 10.163 1.69 10.233 1.73342C10.3029 1.77685 10.3593 1.83895 10.3958 1.91274L12.3208 5.8119C12.4476 6.06854 12.6348 6.29058 12.8663 6.45895C13.0979 6.62732 13.3668 6.737 13.65 6.77857L17.955 7.40857C18.0366 7.42039 18.1132 7.4548 18.1762 7.5079C18.2393 7.56101 18.2862 7.63069 18.3117 7.70908C18.3372 7.78746 18.3402 7.87141 18.3205 7.95143C18.3007 8.03146 18.259 8.10436 18.2 8.1619L15.0867 11.1936C14.8813 11.3937 14.7277 11.6406 14.639 11.9133C14.5503 12.1859 14.5292 12.476 14.5775 12.7586L15.3125 17.0419C15.3269 17.1234 15.3181 17.2074 15.2871 17.2841C15.2561 17.3609 15.2041 17.4274 15.1371 17.4761C15.0701 17.5247 14.9908 17.5536 14.9082 17.5593C14.8256 17.5651 14.7431 17.5475 14.67 17.5086L10.8217 15.4852C10.5681 15.3521 10.286 15.2825 9.99958 15.2825C9.71318 15.2825 9.43106 15.3521 9.17749 15.4852L5.32999 17.5086C5.25694 17.5472 5.17449 17.5646 5.09204 17.5588C5.00958 17.5529 4.93043 17.524 4.86357 17.4754C4.79672 17.4268 4.74485 17.3604 4.71387 17.2838C4.68289 17.2071 4.67404 17.1233 4.68833 17.0419L5.42249 12.7594C5.47099 12.4767 5.44998 12.1864 5.36128 11.9136C5.27257 11.6408 5.11883 11.3937 4.91333 11.1936L1.79999 8.16274C1.74049 8.10526 1.69832 8.03223 1.6783 7.95197C1.65827 7.8717 1.66119 7.78742 1.68673 7.70873C1.71226 7.63004 1.75938 7.5601 1.82272 7.50689C1.88607 7.45367 1.96308 7.41932 2.04499 7.40774L6.34916 6.77857C6.63271 6.73732 6.90199 6.62778 7.13381 6.45939C7.36564 6.291 7.55308 6.0688 7.67999 5.8119L9.60416 1.91274Z" stroke="white" stroke-width="1.66667" stroke-linecap="round" stroke-linejoin="round"></path></g><defs><clipPath id="clip0_101_608"><rect width="20" height="20" fill="white"></rect></clipPath></defs></svg>