<svg xmlns="http://www.w3.org/2000/svg" width="16" height="16" viewBox="0 0 16 16" fill="none"><path d="M5.66667 9.66667C6.1087 9.66667 6.53262 9.49107 6.84518 9.17851C7.15774 8.86595 7.33334 8.44203 7.33334 8C7.33334 7.08 7 6.66667 6.66667 6C5.952 4.57133 6.51734 3.29733 8 2C8.33334 3.66667 9.33334 5.26667 10.6667 6.33333C12 7.4 12.6667 8.66667 12.6667 10C12.6667 10.6128 12.546 11.2197 12.3114 11.7859C12.0769 12.352 11.7332 12.8665 11.2998 13.2998C10.8665 13.7332 10.352 14.0769 9.78586 14.3114C9.21967 14.546 8.61284 14.6667 8 14.6667C7.38717 14.6667 6.78033 14.546 6.21415 14.3114C5.64796 14.0769 5.13351 13.7332 4.70017 13.2998C4.26683 12.8665 3.92309 12.352 3.68856 11.7859C3.45404 11.2197 3.33334 10.6128 3.33334 10C3.33334 9.23133 3.622 8.47067 4 8C4 8.44203 4.1756 8.86595 4.48816 9.17851C4.80072 9.49107 5.22464 9.66667 5.66667 9.66667Z" stroke="#FF6900" stroke-width="1.33333" stroke-linecap="round" stroke-linejoin="round"></path></svg>