<svg xmlns="http://www.w3.org/2000/svg" width="19" height="19" viewBox="0 0 19 19" fill="none"><path d="M7.44624 12.0836C7.37184 11.7952 7.22152 11.532 7.01092 11.3214C6.80032 11.1108 6.53713 10.9605 6.24874 10.8861L1.13624 9.56775C1.04902 9.54299 0.972247 9.49046 0.917583 9.41812C0.862919 9.34578 0.833344 9.25759 0.833344 9.16692C0.833344 9.07625 0.862919 8.98805 0.917583 8.91571C0.972247 8.84337 1.04902 8.79084 1.13624 8.76608L6.24874 7.44692C6.53703 7.37259 6.80015 7.22239 7.01074 7.01195C7.22133 6.8015 7.37171 6.53849 7.44624 6.25025L8.76457 1.13775C8.78908 1.05018 8.84156 0.973033 8.91401 0.918077C8.98645 0.863121 9.07489 0.833374 9.16582 0.833374C9.25675 0.833374 9.34519 0.863121 9.41764 0.918077C9.49009 0.973033 9.54257 1.05018 9.56707 1.13775L10.8846 6.25025C10.959 6.53864 11.1093 6.80183 11.3199 7.01243C11.5305 7.22303 11.7937 7.37335 12.0821 7.44775L17.1946 8.76525C17.2825 8.7895 17.36 8.84192 17.4153 8.91448C17.4705 8.98704 17.5004 9.07572 17.5004 9.16692C17.5004 9.25811 17.4705 9.34679 17.4153 9.41935C17.36 9.49191 17.2825 9.54433 17.1946 9.56858L12.0821 10.8861C11.7937 10.9605 11.5305 11.1108 11.3199 11.3214C11.1093 11.532 10.959 11.7952 10.8846 12.0836L9.56624 17.1961C9.54173 17.2837 9.48925 17.3608 9.41681 17.4158C9.34436 17.4707 9.25592 17.5005 9.16499 17.5005C9.07406 17.5005 8.98562 17.4707 8.91317 17.4158C8.84073 17.3608 8.78825 17.2837 8.76374 17.1961L7.44624 12.0836Z" stroke="#0E4B3A" stroke-width="1.66667" stroke-linecap="round" stroke-linejoin="round"></path></svg>