<svg xmlns="http://www.w3.org/2000/svg" width="20" height="20" viewBox="0 0 20 20" fill="none"><g clip-path="url(#clip0_8_8124)"><path d="M12.5 1.6665H5.00001C4.55798 1.6665 4.13406 1.8421 3.8215 2.15466C3.50894 2.46722 3.33334 2.89114 3.33334 3.33317V16.6665C3.33334 17.1085 3.50894 17.5325 3.8215 17.845C4.13406 18.1576 4.55798 18.3332 5.00001 18.3332H15C15.442 18.3332 15.866 18.1576 16.1785 17.845C16.4911 17.5325 16.6667 17.1085 16.6667 16.6665V5.83317L12.5 1.6665Z" stroke="#0E4B3A" stroke-width="1.66667" stroke-linecap="round" stroke-linejoin="round"></path><path d="M11.6667 1.6665V4.99984C11.6667 5.44186 11.8423 5.86579 12.1548 6.17835C12.4674 6.49091 12.8913 6.6665 13.3333 6.6665H16.6667" stroke="#0E4B3A" stroke-width="1.66667" stroke-linecap="round" stroke-linejoin="round"></path><path d="M8.33332 7.5H6.66666" stroke="#0E4B3A" stroke-width="1.66667" stroke-linecap="round" stroke-linejoin="round"></path><path d="M13.3333 10.8335H6.66666" stroke="#0E4B3A" stroke-width="1.66667" stroke-linecap="round" stroke-linejoin="round"></path><path d="M13.3333 14.1665H6.66666" stroke="#0E4B3A" stroke-width="1.66667" stroke-linecap="round" stroke-linejoin="round"></path></g><defs><clipPath id="clip0_8_8124"><rect width="20" height="20" fill="white"></rect></clipPath></defs></svg>