<svg xmlns="http://www.w3.org/2000/svg" width="16" height="16" viewBox="0 0 16 16" fill="none"><g clip-path="url(#clip0_7_6439)"><path d="M4.00001 6.00002H3.00001C2.55798 6.00002 2.13406 5.82443 1.8215 5.51186C1.50894 5.1993 1.33334 4.77538 1.33334 4.33335C1.33334 3.89133 1.50894 3.4674 1.8215 3.15484C2.13406 2.84228 2.55798 2.66669 3.00001 2.66669H4.00001" stroke="#0E4B3A" stroke-width="1.33333" stroke-linecap="round" stroke-linejoin="round"></path><path d="M12 6.00002H13C13.442 6.00002 13.866 5.82443 14.1785 5.51186C14.4911 5.1993 14.6667 4.77538 14.6667 4.33335C14.6667 3.89133 14.4911 3.4674 14.1785 3.15484C13.866 2.84228 13.442 2.66669 13 2.66669H12" stroke="#0E4B3A" stroke-width="1.33333" stroke-linecap="round" stroke-linejoin="round"></path><path d="M2.66666 14.6667H13.3333" stroke="#0E4B3A" stroke-width="1.33333" stroke-linecap="round" stroke-linejoin="round"></path><path d="M6.66666 9.77332V11.3333C6.66666 11.7 6.35332 11.9866 6.01999 12.14C5.23332 12.5 4.66666 13.4933 4.66666 14.6666" stroke="#0E4B3A" stroke-width="1.33333" stroke-linecap="round" stroke-linejoin="round"></path><path d="M9.33334 9.77332V11.3333C9.33334 11.7 9.64668 11.9866 9.98001 12.14C10.7667 12.5 11.3333 13.4933 11.3333 14.6666" stroke="#0E4B3A" stroke-width="1.33333" stroke-linecap="round" stroke-linejoin="round"></path><path d="M12 1.33331H4V5.99998C4 7.06085 4.42143 8.07826 5.17157 8.82841C5.92172 9.57855 6.93913 9.99998 8 9.99998C9.06087 9.99998 10.0783 9.57855 10.8284 8.82841C11.5786 8.07826 12 7.06085 12 5.99998V1.33331Z" stroke="#0E4B3A" stroke-width="1.33333" stroke-linecap="round" stroke-linejoin="round"></path></g><defs><clipPath id="clip0_7_6439"><rect width="16" height="16" fill="white"></rect></clipPath></defs></svg>