<svg xmlns="http://www.w3.org/2000/svg" width="20" height="20" viewBox="0 0 20 20" fill="none"><path d="M16.6667 10.8337C16.6667 15.0003 13.75 17.0837 10.2833 18.292C10.1018 18.3535 9.90461 18.3506 9.72499 18.2837C6.24999 17.0837 3.33333 15.0003 3.33333 10.8337V5.00033C3.33333 4.77932 3.42113 4.56736 3.57741 4.41108C3.73369 4.2548 3.94565 4.167 4.16666 4.167C5.83333 4.167 7.91666 3.167 9.36666 1.90033C9.54321 1.7495 9.76779 1.66663 9.99999 1.66663C10.2322 1.66663 10.4568 1.7495 10.6333 1.90033C12.0917 3.17533 14.1667 4.167 15.8333 4.167C16.0543 4.167 16.2663 4.2548 16.4226 4.41108C16.5789 4.56736 16.6667 4.77932 16.6667 5.00033V10.8337Z" stroke="#0E4B3A" stroke-width="1.66667" stroke-linecap="round" stroke-linejoin="round"></path></svg>