<svg xmlns="http://www.w3.org/2000/svg" width="28" height="28" viewBox="0 0 28 28" fill="none"><path d="M4.66668 16.3336C4.4459 16.3344 4.22945 16.2725 4.04246 16.1551C3.85547 16.0377 3.70562 15.8697 3.61032 15.6705C3.51502 15.4714 3.47819 15.2493 3.50409 15.03C3.53 14.8108 3.61759 14.6034 3.75668 14.4319L15.3067 2.53194C15.3933 2.43193 15.5114 2.36435 15.6415 2.34029C15.7716 2.31623 15.906 2.33712 16.0227 2.39953C16.1394 2.46193 16.2314 2.56215 16.2836 2.68373C16.3358 2.80531 16.3451 2.94103 16.31 3.0686L14.07 10.0919C14.004 10.2687 13.9818 10.4589 14.0054 10.6461C14.029 10.8333 14.0976 11.0121 14.2054 11.1669C14.3133 11.3218 14.4571 11.4482 14.6245 11.5353C14.7919 11.6224 14.978 11.6676 15.1667 11.6669H23.3333C23.5541 11.6662 23.7706 11.7281 23.9576 11.8455C24.1446 11.9628 24.2944 12.1309 24.3897 12.33C24.485 12.5292 24.5218 12.7513 24.4959 12.9705C24.47 13.1898 24.3824 13.3972 24.2433 13.5686L12.6933 25.4686C12.6067 25.5686 12.4886 25.6362 12.3585 25.6602C12.2284 25.6843 12.094 25.6634 11.9773 25.601C11.8607 25.5386 11.7687 25.4384 11.7165 25.3168C11.6642 25.1952 11.6549 25.0595 11.69 24.9319L13.93 17.9086C13.9961 17.7318 14.0182 17.5417 13.9947 17.3544C13.9711 17.1672 13.9024 16.9885 13.7946 16.8336C13.6867 16.6787 13.5429 16.5523 13.3755 16.4653C13.2081 16.3782 13.0221 16.333 12.8333 16.3336H4.66668Z" stroke="#E5FF00" stroke-width="2.33333" stroke-linecap="round" stroke-linejoin="round"></path></svg>