<svg xmlns="http://www.w3.org/2000/svg" width="20" height="20" viewBox="0 0 20 20" fill="none"><g clip-path="url(#clip0_8_7509)"><path d="M9.60422 1.91237C9.64074 1.83859 9.69716 1.77648 9.7671 1.73306C9.83704 1.68964 9.91773 1.66663 10.0001 1.66663C10.0824 1.66663 10.1631 1.68964 10.233 1.73306C10.303 1.77648 10.3594 1.83859 10.3959 1.91237L12.3209 5.81154C12.4477 6.06818 12.6349 6.29021 12.8664 6.45858C13.0979 6.62695 13.3668 6.73663 13.6501 6.7782L17.9551 7.4082C18.0366 7.42002 18.1133 7.45443 18.1763 7.50754C18.2393 7.56064 18.2862 7.63033 18.3117 7.70871C18.3372 7.78709 18.3403 7.87104 18.3205 7.95107C18.3008 8.03109 18.2591 8.104 18.2001 8.16154L15.0867 11.1932C14.8814 11.3933 14.7278 11.6403 14.6391 11.9129C14.5504 12.1855 14.5293 12.4756 14.5776 12.7582L15.3126 17.0415C15.327 17.1231 15.3181 17.207 15.2871 17.2838C15.2561 17.3605 15.2042 17.427 15.1372 17.4757C15.0702 17.5244 14.9909 17.5532 14.9083 17.559C14.8257 17.5647 14.7431 17.5471 14.6701 17.5082L10.8217 15.4849C10.5682 15.3517 10.286 15.2822 9.99964 15.2822C9.71324 15.2822 9.43112 15.3517 9.17756 15.4849L5.33006 17.5082C5.257 17.5469 5.17455 17.5643 5.0921 17.5584C5.00964 17.5526 4.93049 17.5237 4.86363 17.4751C4.79678 17.4264 4.74492 17.36 4.71394 17.2834C4.68296 17.2068 4.6741 17.123 4.68839 17.0415L5.42256 12.759C5.47105 12.4763 5.45004 12.186 5.36134 11.9132C5.27263 11.6404 5.1189 11.3933 4.91339 11.1932L1.80006 8.16237C1.74055 8.1049 1.69838 8.03187 1.67836 7.9516C1.65833 7.87133 1.66125 7.78705 1.68679 7.70836C1.71232 7.62967 1.75944 7.55974 1.82279 7.50652C1.88613 7.45331 1.96314 7.41895 2.04506 7.40737L6.34922 6.7782C6.63277 6.73695 6.90205 6.62742 7.13388 6.45903C7.3657 6.29063 7.55314 6.06843 7.68006 5.81154L9.60422 1.91237Z" stroke="#0E4B3A" stroke-width="1.66667" stroke-linecap="round" stroke-linejoin="round"></path></g><defs><clipPath id="clip0_8_7509"><rect width="20" height="20" fill="white"></rect></clipPath></defs></svg>