<svg xmlns="http://www.w3.org/2000/svg" width="20" height="20" viewBox="0 0 20 20" fill="none"><path d="M10.4883 2.15499C10.1758 1.84241 9.75198 1.66675 9.30999 1.66666H3.33332C2.8913 1.66666 2.46737 1.84225 2.15481 2.15481C1.84225 2.46737 1.66666 2.8913 1.66666 3.33332V9.30999C1.66675 9.75198 1.84241 10.1758 2.15499 10.4883L9.40832 17.7417C9.78708 18.118 10.2994 18.3293 10.8333 18.3293C11.3673 18.3293 11.8796 18.118 12.2583 17.7417L17.7417 12.2583C18.118 11.8796 18.3293 11.3673 18.3293 10.8333C18.3293 10.2994 18.118 9.78708 17.7417 9.40832L10.4883 2.15499Z" stroke="#0E4B3A" stroke-width="1.66667" stroke-linecap="round" stroke-linejoin="round"></path><path d="M6.25001 6.66668C6.48013 6.66668 6.66668 6.48013 6.66668 6.25001C6.66668 6.01989 6.48013 5.83334 6.25001 5.83334C6.01989 5.83334 5.83334 6.01989 5.83334 6.25001C5.83334 6.48013 6.01989 6.66668 6.25001 6.66668Z" fill="#0E4B3A" stroke="#0E4B3A" stroke-width="1.66667" stroke-linecap="round" stroke-linejoin="round"></path></svg>