<svg xmlns="http://www.w3.org/2000/svg" width="262" height="24" viewBox="0 0 262 24" fill="none"><path d="M0 23.9999H24V-5.38826e-05H0V23.9999ZM45.4157 7.39195V9.09595H42.8957V22.3199H41.0477V16.4879L41.4317 17.8319C40.9037 17.0959 40.3277 16.4319 39.7037 15.8399C39.0797 15.2479 38.4397 14.7759 37.7837 14.4239C37.1277 14.0719 36.4877 13.8959 35.8637 13.8959C35.2717 13.8959 34.7677 14.0559 34.3517 14.3759C33.9517 14.6799 33.7517 15.1359 33.7517 15.7439C33.7517 16.2239 33.9197 16.6399 34.2557 16.9919C34.5917 17.3279 35.1117 17.6319 35.8157 17.9039L34.9037 19.6079C33.9277 19.2079 33.1597 18.6719 32.5997 17.9999C32.0557 17.3119 31.7837 16.5359 31.7837 15.6719C31.7837 14.8879 31.9677 14.2399 32.3357 13.7279C32.7197 13.1999 33.1997 12.8079 33.7757 12.5519C34.3677 12.2959 34.9677 12.1679 35.5757 12.1679C36.4077 12.1679 37.1677 12.3119 37.8557 12.5999C38.5437 12.8879 39.1837 13.2799 39.7757 13.7759C40.3837 14.2719 40.9597 14.8479 41.5037 15.5039L41.1677 15.5999C41.1197 15.2319 41.0877 14.8719 41.0717 14.5199C41.0557 14.1519 41.0477 13.7839 41.0477 13.4159V9.09595H30.4397V7.39195H45.4157ZM59.0121 7.39195V9.09595H49.2921V17.3999C49.2921 18.1039 49.3321 18.5999 49.4121 18.8879C49.4921 19.1759 49.5881 19.3839 49.7001 19.5119C49.9881 19.8479 50.4281 20.0159 51.0201 20.0159C51.6441 20.0159 52.2361 19.8639 52.7961 19.5599C53.3561 19.2559 53.8441 18.8799 54.2601 18.4319C54.7241 17.9359 55.0761 17.4079 55.3161 16.8479C55.5721 16.2879 55.7001 15.7199 55.7001 15.1439C55.7001 14.6319 55.5721 14.2479 55.3161 13.9919C55.0601 13.7199 54.6361 13.5839 54.0441 13.5839C53.8521 13.5839 53.6441 13.5999 53.4201 13.6319C53.1961 13.6639 52.9801 13.7039 52.7721 13.7519L52.5081 12.0479C52.8121 11.9679 53.1241 11.9039 53.4441 11.8559C53.7801 11.8079 54.1321 11.7839 54.5001 11.7839C55.0921 11.7839 55.6201 11.8959 56.0841 12.1199C56.5481 12.3439 56.9081 12.6959 57.1641 13.1759C57.4361 13.6559 57.5721 14.2799 57.5721 15.0479C57.5721 15.9919 57.3401 16.9119 56.8761 17.8079C56.4121 18.6879 55.8281 19.4319 55.1241 20.0399C54.5321 20.5519 53.8841 20.9679 53.1801 21.2879C52.4921 21.5919 51.7321 21.7439 50.9001 21.7439C50.3081 21.7439 49.7961 21.6559 49.3641 21.4799C48.9481 21.3039 48.6041 21.0799 48.3321 20.8079C48.0761 20.5039 47.8601 20.1359 47.6841 19.7039C47.5241 19.2719 47.4441 18.6159 47.4441 17.7359V9.09595H44.9241V7.39195H59.0121ZM54.6441 7.39195C54.6281 6.73595 54.4681 6.26395 54.1641 5.97594C53.8761 5.68794 53.3961 5.54394 52.7241 5.54394H50.4681C49.4281 5.54394 48.6201 5.47195 48.0441 5.32795C47.4841 5.18395 47.0041 4.95995 46.6041 4.65594C46.1721 4.33595 45.8441 3.92795 45.6201 3.43194C45.4121 2.91994 45.3081 2.34395 45.3081 1.70395C45.3081 1.49595 45.3161 1.29595 45.3321 1.10394C45.3641 0.895946 45.3961 0.671946 45.4281 0.431945L47.2041 0.551945C47.1721 0.727945 47.1481 0.887946 47.1321 1.03195C47.1161 1.15995 47.1081 1.30395 47.1081 1.46395C47.1081 1.81595 47.1401 2.12794 47.2041 2.39995C47.2841 2.67195 47.4041 2.89595 47.5641 3.07195C47.7881 3.32795 48.1081 3.51995 48.5241 3.64794C48.9561 3.75995 49.5641 3.81595 50.3481 3.81595H52.2201C53.0681 3.81595 53.7401 3.87995 54.2361 4.00795C54.7321 4.13595 55.1561 4.36795 55.5081 4.70395C55.7801 4.95995 55.9881 5.31194 56.1321 5.75994C56.2761 6.19195 56.3561 6.73595 56.3721 7.39195H54.6441ZM80.3333 7.39195V9.09595H77.9333V22.3199H76.0853C75.6213 21.3759 75.0453 20.5519 74.3573 19.8479C73.6693 19.1279 72.9333 18.5119 72.1493 17.9999L72.7493 16.4159C73.3573 16.7679 73.9893 17.2479 74.6453 17.8559C75.3013 18.4639 75.8053 19.0799 76.1573 19.7039C76.1413 19.4639 76.1253 19.2399 76.1093 19.0319C76.1093 18.8239 76.1013 18.6079 76.0853 18.3839C76.0853 18.1599 76.0853 17.9199 76.0853 17.6639V9.09595H58.5412V7.39195H80.3333ZM67.8053 20.1359C66.7173 20.1359 65.6773 19.8799 64.6853 19.3679C63.6933 18.8559 62.7573 17.9919 61.8773 16.7759C61.0133 15.5439 60.2133 13.8559 59.4773 11.7119L61.2293 11.1359C61.8053 12.7999 62.4053 14.1679 63.0293 15.2399C63.6693 16.2959 64.3813 17.0719 65.1653 17.5679C65.9493 18.0639 66.8453 18.3119 67.8533 18.3119C68.7333 18.3119 69.4373 18.1759 69.9653 17.9039C70.5093 17.6159 70.9013 17.2319 71.1413 16.7519C71.3813 16.2719 71.5013 15.7279 71.5013 15.1199C71.5013 14.1919 71.2453 13.4399 70.7333 12.8639C70.2373 12.2879 69.6133 11.9999 68.8613 11.9999C68.3333 11.9999 67.9333 12.1199 67.6613 12.3599C67.3893 12.5839 67.2533 12.9279 67.2533 13.3919C67.2533 13.5039 67.2693 13.6559 67.3013 13.8479C67.3333 14.0399 67.3813 14.2159 67.4453 14.3759L65.6213 14.7359C65.5093 14.3999 65.4213 14.0959 65.3573 13.8239C65.3093 13.5359 65.2853 13.2639 65.2853 13.0079C65.2853 12.4159 65.4453 11.9199 65.7653 11.5199C66.1013 11.1199 66.5253 10.8239 67.0373 10.6319C67.5653 10.4239 68.1173 10.3199 68.6933 10.3199C69.6373 10.3199 70.4533 10.5359 71.1413 10.9679C71.8293 11.3839 72.3653 11.9599 72.7493 12.6959C73.1333 13.4319 73.3253 14.2879 73.3253 15.2639C73.3253 16.1279 73.1253 16.9359 72.7253 17.6879C72.3253 18.4239 71.7173 19.0159 70.9012 19.4639C70.0853 19.9119 69.0533 20.1359 67.8053 20.1359ZM67.0373 11.1599C66.9573 10.6479 66.7173 10.1999 66.3173 9.81595C65.9333 9.41595 65.3653 9.13595 64.6133 8.97594L65.1893 7.89595L66.2693 8.18395C67.1813 8.53595 67.8373 8.93595 68.2373 9.38395C68.6373 9.83195 68.8693 10.3999 68.9333 11.0879L67.0373 11.1599ZM86.8133 7.39195V9.09595H84.2933V22.3199H82.4453V10.8239C82.1733 10.1999 81.8613 9.75995 81.5093 9.50395C81.1733 9.23195 80.7733 9.09595 80.3093 9.09595H80.0693V7.39195H80.3093C80.7573 7.39195 81.1733 7.51995 81.5573 7.77595C81.9573 8.01595 82.2853 8.39195 82.5413 8.90395C82.5253 8.82395 82.5013 8.63995 82.4693 8.35195C82.4533 8.06395 82.4453 7.81595 82.4453 7.60795V5.80795H83.7173L84.2693 7.39195H86.8133ZM98.7701 7.39195C98.7541 6.73595 98.5941 6.26395 98.2901 5.97594C98.0021 5.68794 97.5221 5.54394 96.8501 5.54394H93.4901C92.4501 5.54394 91.6421 5.47195 91.0661 5.32795C90.5061 5.18395 90.0261 4.95995 89.6261 4.65594C89.1941 4.33595 88.8661 3.92795 88.6421 3.43194C88.4341 2.91994 88.3301 2.34395 88.3301 1.70395C88.3301 1.49595 88.3381 1.28795 88.3541 1.07995C88.3861 0.871945 88.4181 0.655945 88.4501 0.431945L90.2261 0.551945C90.1941 0.743945 90.1701 0.911945 90.1541 1.05595C90.1381 1.19995 90.1301 1.33595 90.1301 1.46395C90.1301 1.81595 90.1621 2.12794 90.2261 2.39995C90.3061 2.67195 90.4261 2.89595 90.5861 3.07195C90.8101 3.32795 91.1301 3.51995 91.5461 3.64794C91.9621 3.75995 92.5701 3.81595 93.3701 3.81595H96.3461C97.1941 3.81595 97.8661 3.87995 98.3621 4.00795C98.8581 4.13595 99.2821 4.36795 99.6341 4.70395C99.9061 4.95995 100.114 5.31194 100.258 5.75994C100.402 6.19195 100.482 6.73595 100.498 7.39195H98.7701ZM103.906 7.39195V9.09595H95.1221V13.3919C95.1221 13.8559 95.1941 14.1999 95.3381 14.4239C95.4821 14.6319 95.7061 14.7359 96.0101 14.7359C96.3141 14.7359 96.6261 14.6399 96.9461 14.4479C97.2821 14.2559 97.6421 13.9519 98.0261 13.5359C98.4101 13.1199 98.8261 12.5839 99.2741 11.9279L100.714 11.7119C101.226 12.4639 101.618 13.2399 101.89 14.0399C102.178 14.8399 102.322 15.6399 102.322 16.4399C102.322 17.4479 102.098 18.3519 101.65 19.1519C101.218 19.9519 100.57 20.5839 99.7061 21.0479C98.8581 21.5119 97.8181 21.7439 96.5861 21.7439C95.5301 21.7439 94.5461 21.5599 93.6341 21.1919C92.7221 20.8239 91.8821 20.2319 91.1141 19.4159C90.3461 18.5839 89.6421 17.4959 89.0021 16.1519C88.3621 14.7919 87.7861 13.1279 87.2741 11.1599L89.0981 10.6799C89.6741 12.9039 90.3061 14.6959 90.9941 16.0559C91.6981 17.3999 92.4981 18.3839 93.3941 19.0079C94.2901 19.6159 95.3221 19.9199 96.4901 19.9199C97.7701 19.9199 98.7541 19.5999 99.4421 18.9599C100.146 18.3199 100.498 17.4959 100.498 16.4879C100.498 15.7679 100.394 15.1519 100.186 14.6399C99.9941 14.1279 99.7381 13.7039 99.4181 13.3679L100.522 12.9119C100.042 13.7279 99.5461 14.3999 99.0341 14.9279C98.5381 15.4559 98.0341 15.8559 97.5221 16.1279C97.0261 16.3839 96.5301 16.5119 96.0341 16.5119C95.6661 16.5119 95.3221 16.4639 95.0021 16.3679C94.6821 16.2559 94.4101 16.0959 94.1861 15.8879C93.9301 15.6639 93.7141 15.3519 93.5381 14.9519C93.3621 14.5359 93.2741 13.8479 93.2741 12.8879V9.09595H86.3381V7.39195H103.906ZM117.512 7.39195V9.09595H107.792V17.3999C107.792 18.1039 107.832 18.5999 107.912 18.8879C107.992 19.1759 108.088 19.3839 108.2 19.5119C108.488 19.8479 108.928 20.0159 109.52 20.0159C110.144 20.0159 110.736 19.8639 111.296 19.5599C111.856 19.2559 112.344 18.8799 112.76 18.4319C113.224 17.9359 113.576 17.4079 113.816 16.8479C114.072 16.2879 114.2 15.7199 114.2 15.1439C114.2 14.6319 114.072 14.2479 113.816 13.9919C113.56 13.7199 113.136 13.5839 112.544 13.5839C112.352 13.5839 112.144 13.5999 111.92 13.6319C111.696 13.6639 111.48 13.7039 111.272 13.7519L111.008 12.0479C111.312 11.9679 111.624 11.9039 111.944 11.8559C112.28 11.8079 112.632 11.7839 113 11.7839C113.592 11.7839 114.12 11.8959 114.584 12.1199C115.048 12.3439 115.408 12.6959 115.664 13.1759C115.936 13.6559 116.072 14.2799 116.072 15.0479C116.072 15.9919 115.84 16.9119 115.376 17.8079C114.912 18.6879 114.328 19.4319 113.624 20.0399C113.032 20.5519 112.384 20.9679 111.68 21.2879C110.992 21.5919 110.232 21.7439 109.4 21.7439C108.808 21.7439 108.296 21.6559 107.864 21.4799C107.448 21.3039 107.104 21.0799 106.832 20.8079C106.576 20.5039 106.36 20.1359 106.184 19.7039C106.024 19.2719 105.944 18.6159 105.944 17.7359V9.09595H103.424V7.39195H117.512ZM113.144 7.39195C113.128 6.73595 112.968 6.26395 112.664 5.97594C112.376 5.68794 111.896 5.54394 111.224 5.54394H108.968C107.928 5.54394 107.12 5.47195 106.544 5.32795C105.984 5.18395 105.504 4.95995 105.104 4.65594C104.672 4.33595 104.344 3.92795 104.12 3.43194C103.912 2.91994 103.808 2.34395 103.808 1.70395C103.808 1.49595 103.816 1.29595 103.832 1.10394C103.864 0.895946 103.896 0.671946 103.928 0.431945L105.704 0.551945C105.672 0.727945 105.648 0.887946 105.632 1.03195C105.616 1.15995 105.608 1.30395 105.608 1.46395C105.608 1.81595 105.64 2.12794 105.704 2.39995C105.784 2.67195 105.904 2.89595 106.064 3.07195C106.288 3.32795 106.608 3.51995 107.024 3.64794C107.456 3.75995 108.064 3.81595 108.848 3.81595H110.72C111.568 3.81595 112.24 3.87995 112.736 4.00795C113.232 4.13595 113.656 4.36795 114.008 4.70395C114.28 4.95995 114.488 5.31194 114.632 5.75994C114.776 6.19195 114.856 6.73595 114.872 7.39195H113.144ZM136.225 7.24795C136.881 7.24795 137.425 7.31995 137.857 7.46395C138.305 7.59195 138.681 7.79195 138.985 8.06395C139.289 8.31995 139.529 8.63995 139.705 9.02395C139.881 9.39195 139.969 9.90395 139.969 10.5599V22.3199H138.169C138.041 21.8399 137.857 21.4479 137.617 21.1439C137.377 20.8399 137.081 20.6159 136.729 20.4719C136.393 20.3119 135.985 20.2319 135.505 20.2319C134.929 20.2319 134.393 20.2639 133.897 20.3279C133.401 20.3919 132.881 20.4639 132.337 20.5439C131.809 20.6079 131.193 20.6399 130.489 20.6399C129.945 20.6399 129.361 20.5839 128.737 20.4719C128.113 20.3439 127.521 20.1119 126.961 19.7759C126.401 19.4399 125.945 18.9439 125.593 18.2879C125.241 17.6159 125.065 16.7359 125.065 15.6479C125.065 15.2639 125.097 14.8639 125.161 14.4479C125.225 14.0159 125.289 13.6239 125.353 13.2719L127.201 13.5359C127.137 13.7759 127.073 14.0639 127.009 14.3999C126.961 14.7359 126.937 15.1359 126.937 15.5999C126.937 16.3039 127.041 16.8719 127.249 17.3039C127.457 17.7359 127.737 18.0639 128.089 18.2879C128.441 18.5119 128.833 18.6639 129.265 18.7439C129.697 18.8239 130.137 18.8639 130.585 18.8639C131.385 18.8639 132.113 18.7999 132.769 18.6719C133.441 18.5279 134.193 18.4559 135.025 18.4559C135.713 18.4559 136.313 18.5599 136.825 18.7679C137.337 18.9599 137.769 19.2959 138.121 19.7759V11.2079C138.121 10.6159 138.081 10.1919 138.001 9.93595C137.921 9.67995 137.793 9.47195 137.617 9.31194C137.329 9.07195 136.889 8.95195 136.297 8.95195C135.721 8.95195 135.169 9.07995 134.641 9.33595C134.129 9.59195 133.665 9.91995 133.249 10.3199C132.849 10.7199 132.529 11.1519 132.289 11.6159C132.065 12.0639 131.953 12.4879 131.953 12.8879C131.953 13.0479 131.985 13.2159 132.049 13.3919C132.113 13.5679 132.249 13.7199 132.457 13.8479C132.665 13.9759 132.969 14.0399 133.369 14.0399C133.545 14.0399 133.713 14.0319 133.873 14.0159C134.033 13.9999 134.201 13.9839 134.377 13.9679L134.545 15.6479C134.385 15.7119 134.169 15.7599 133.897 15.7919C133.641 15.8239 133.337 15.8399 132.985 15.8399C132.201 15.8399 131.513 15.5999 130.921 15.1199C130.345 14.6399 130.057 13.9039 130.057 12.9119C130.057 12.2719 130.217 11.6239 130.537 10.9679C130.873 10.2959 131.329 9.67995 131.905 9.11995C132.481 8.55995 133.137 8.11195 133.873 7.77595C134.625 7.42395 135.409 7.24795 136.225 7.24795ZM152.732 8.97594V10.1999L152.708 9.95995C153.716 10.0879 154.644 10.3599 155.492 10.7759C156.34 11.1919 157.012 11.7279 157.508 12.3839C158.02 13.0399 158.276 13.7999 158.276 14.6639C158.276 15.1599 158.164 15.6159 157.94 16.0319C157.732 16.4479 157.412 16.7759 156.98 17.0159C156.564 17.2559 156.028 17.3759 155.372 17.3759C155.164 17.3759 154.948 17.3679 154.724 17.3519C154.516 17.3199 154.324 17.2879 154.148 17.2559L154.244 15.5759C154.34 15.5919 154.444 15.6079 154.556 15.6239C154.668 15.6239 154.796 15.6239 154.94 15.6239C155.596 15.6239 156.02 15.5119 156.212 15.2879C156.42 15.0639 156.524 14.8079 156.524 14.5199C156.524 13.8639 156.196 13.2879 155.54 12.7919C154.9 12.2799 153.956 11.9199 152.708 11.7119L152.756 11.5679V20.8079H151.028C150.5 20.0399 149.908 19.3199 149.252 18.6479C148.596 17.9759 147.836 17.3999 146.972 16.9199C146.108 16.4239 145.1 16.0719 143.948 15.8639L143.036 13.6079C143.948 13.0959 144.892 12.5999 145.868 12.1199C146.844 11.6399 147.804 11.2159 148.748 10.8479C149.692 10.4639 150.564 10.1599 151.364 9.93595L150.908 10.8959V8.99995L152.732 8.97594ZM150.908 11.0159L151.388 11.8079C150.716 11.9999 149.988 12.2639 149.204 12.5999C148.42 12.9199 147.644 13.2639 146.876 13.6319C146.124 13.9999 145.436 14.3599 144.812 14.7119L144.572 14.2559C146.108 14.5439 147.388 15.0719 148.412 15.8399C149.436 16.5919 150.292 17.3919 150.98 18.2399C150.964 17.9359 150.948 17.5919 150.932 17.2079C150.916 16.8079 150.908 16.4879 150.908 16.2479V11.0159ZM158.012 7.39195V9.09595H141.908V7.39195H158.012ZM164.3 7.39195V9.09595H161.78V23.1119H159.932V21.9359L159.98 21.1919C159.964 20.8239 159.948 20.4479 159.932 20.0639C159.932 19.6799 159.932 19.3039 159.932 18.9359V9.09595H157.484V7.39195H164.3ZM149.468 22.9919C149.052 22.9919 148.652 22.9039 148.268 22.7279C147.884 22.5519 147.492 22.2639 147.092 21.8639C146.708 21.4479 146.292 20.8879 145.844 20.1839L147.308 19.2959C147.74 20.0639 148.1 20.5759 148.388 20.8319C148.692 21.0719 149.036 21.1919 149.42 21.1919C149.74 21.1919 150.012 21.1679 150.236 21.1199C150.46 21.0719 150.708 20.9759 150.98 20.8319C151.268 20.6719 151.636 20.4559 152.084 20.1839C152.884 19.6879 153.572 19.2959 154.148 19.0079C154.724 18.7039 155.348 18.5519 156.02 18.5519C156.532 18.5519 156.996 18.6319 157.412 18.7919C157.828 18.9519 158.244 19.2079 158.66 19.5599C159.092 19.8959 159.58 20.3279 160.124 20.8559L159.98 22.9679C159.436 22.3119 158.948 21.7919 158.516 21.4079C158.1 21.0239 157.7 20.7439 157.316 20.5679C156.948 20.3919 156.572 20.3039 156.188 20.3039C155.884 20.3039 155.588 20.3519 155.3 20.4479C155.012 20.5279 154.708 20.6559 154.388 20.8319C154.068 20.9919 153.708 21.1999 153.308 21.4559C152.732 21.8239 152.228 22.1199 151.796 22.3439C151.38 22.5679 150.988 22.7279 150.62 22.8239C150.268 22.9359 149.884 22.9919 149.468 22.9919ZM181.487 7.39195V9.09595H178.967V22.3199H177.119V12.8159L177.647 14.3519C176.991 13.3919 176.391 12.5759 175.847 11.9039C175.303 11.2159 174.783 10.6559 174.287 10.2239C173.807 9.79195 173.319 9.47995 172.823 9.28795C172.327 9.07995 171.791 8.97594 171.215 8.97594C170.575 8.97594 169.991 9.09595 169.463 9.33595C168.951 9.57595 168.479 9.89595 168.047 10.2959C167.615 10.6959 167.215 11.1279 166.847 11.5919L166.655 11.6399C166.911 11.4799 167.159 11.3599 167.399 11.2799C167.655 11.1999 167.935 11.1599 168.239 11.1599C169.167 11.1599 169.847 11.4159 170.279 11.9279C170.711 12.4239 170.927 13.0399 170.927 13.7759C170.927 13.9519 170.919 14.1199 170.903 14.2799C170.887 14.4399 170.863 14.5599 170.831 14.6399L170.423 14.4959C170.615 14.2879 170.799 14.0879 170.975 13.8959C171.151 13.7039 171.335 13.5119 171.527 13.3199C171.735 13.1279 171.943 12.9279 172.151 12.7199L175.127 9.93595L176.303 11.2079L169.487 17.6399L168.071 16.3199L170.039 14.4479L169.175 15.4799L168.455 16.0319C168.695 15.7599 168.895 15.4719 169.055 15.1679C169.231 14.8479 169.319 14.4879 169.319 14.0879C169.319 13.6879 169.199 13.3679 168.959 13.1279C168.719 12.8879 168.367 12.7679 167.903 12.7679C167.647 12.7679 167.399 12.7999 167.159 12.8639C166.919 12.9279 166.671 13.0399 166.415 13.1999L164.591 11.4719C165.231 10.6239 165.887 9.88795 166.559 9.26395C167.231 8.62395 167.935 8.12795 168.671 7.77595C169.407 7.40795 170.199 7.22395 171.047 7.22395C171.943 7.22395 172.751 7.39195 173.471 7.72795C174.191 8.06395 174.887 8.56795 175.559 9.23995C176.231 9.89595 176.935 10.7279 177.671 11.7359L177.239 11.6159C177.191 11.2319 177.159 10.8159 177.143 10.3679C177.127 9.91995 177.119 9.43995 177.119 8.92795V5.80795H178.391L178.943 7.39195H181.487ZM187.866 7.39195V9.09595H185.346V22.3199H183.498V11.0639C183.306 10.5199 183.018 10.0559 182.634 9.67195C182.266 9.28795 181.786 9.09595 181.194 9.09595H181.002V7.39195H181.362C181.746 7.39195 182.146 7.51995 182.562 7.77595C182.978 8.01595 183.314 8.39195 183.57 8.90395C183.554 8.82395 183.538 8.63995 183.522 8.35195C183.506 8.06395 183.498 7.81595 183.498 7.60795V5.80795H184.794L185.322 7.39195H187.866ZM201.465 7.39195V9.09595H191.745V17.3999C191.745 18.1039 191.785 18.5999 191.865 18.8879C191.945 19.1759 192.041 19.3839 192.153 19.5119C192.441 19.8479 192.881 20.0159 193.473 20.0159C194.097 20.0159 194.689 19.8639 195.249 19.5599C195.809 19.2559 196.297 18.8799 196.713 18.4319C197.177 17.9359 197.529 17.4079 197.769 16.8479C198.025 16.2879 198.153 15.7199 198.153 15.1439C198.153 14.6319 198.025 14.2479 197.769 13.9919C197.513 13.7199 197.089 13.5839 196.497 13.5839C196.305 13.5839 196.097 13.5999 195.873 13.6319C195.649 13.6639 195.433 13.7039 195.225 13.7519L194.961 12.0479C195.265 11.9679 195.577 11.9039 195.897 11.8559C196.233 11.8079 196.585 11.7839 196.953 11.7839C197.545 11.7839 198.073 11.8959 198.537 12.1199C199.001 12.3439 199.361 12.6959 199.617 13.1759C199.889 13.6559 200.025 14.2799 200.025 15.0479C200.025 15.9919 199.793 16.9119 199.329 17.8079C198.865 18.6879 198.281 19.4319 197.577 20.0399C196.985 20.5519 196.337 20.9679 195.633 21.2879C194.945 21.5919 194.185 21.7439 193.353 21.7439C192.761 21.7439 192.249 21.6559 191.817 21.4799C191.401 21.3039 191.057 21.0799 190.785 20.8079C190.529 20.5039 190.313 20.1359 190.137 19.7039C189.977 19.2719 189.897 18.6159 189.897 17.7359V9.09595H187.377V7.39195H201.465ZM197.097 7.39195C197.081 6.73595 196.921 6.26395 196.617 5.97594C196.329 5.68794 195.849 5.54394 195.177 5.54394H192.921C191.881 5.54394 191.073 5.47195 190.497 5.32795C189.937 5.18395 189.457 4.95995 189.057 4.65594C188.625 4.33595 188.297 3.92795 188.073 3.43194C187.865 2.91994 187.761 2.34395 187.761 1.70395C187.761 1.49595 187.769 1.29595 187.785 1.10394C187.817 0.895946 187.849 0.671946 187.881 0.431945L189.657 0.551945C189.625 0.727945 189.601 0.887946 189.585 1.03195C189.569 1.15995 189.561 1.30395 189.561 1.46395C189.561 1.81595 189.593 2.12794 189.657 2.39995C189.737 2.67195 189.857 2.89595 190.017 3.07195C190.241 3.32795 190.561 3.51995 190.977 3.64794C191.409 3.75995 192.017 3.81595 192.801 3.81595H194.673C195.521 3.81595 196.193 3.87995 196.689 4.00795C197.185 4.13595 197.609 4.36795 197.961 4.70395C198.233 4.95995 198.441 5.31194 198.585 5.75994C198.729 6.19195 198.809 6.73595 198.825 7.39195H197.097ZM195.138 5.35195L202.962 0.311945L203.874 1.67995L196.218 6.86395L195.138 5.35195ZM228.146 7.39195V9.09595H218.426V17.3999C218.426 18.1039 218.466 18.5999 218.546 18.8879C218.626 19.1759 218.722 19.3839 218.834 19.5119C219.122 19.8479 219.562 20.0159 220.154 20.0159C220.778 20.0159 221.37 19.8639 221.93 19.5599C222.49 19.2559 222.978 18.8799 223.394 18.4319C223.858 17.9359 224.21 17.4079 224.45 16.8479C224.706 16.2879 224.834 15.7199 224.834 15.1439C224.834 14.6319 224.706 14.2479 224.45 13.9919C224.194 13.7199 223.77 13.5839 223.178 13.5839C222.986 13.5839 222.778 13.5999 222.554 13.6319C222.33 13.6639 222.114 13.7039 221.906 13.7519L221.642 12.0479C221.946 11.9679 222.258 11.9039 222.578 11.8559C222.914 11.8079 223.266 11.7839 223.634 11.7839C224.226 11.7839 224.754 11.8959 225.218 12.1199C225.682 12.3439 226.042 12.6959 226.298 13.1759C226.57 13.6559 226.706 14.2799 226.706 15.0479C226.706 15.9919 226.474 16.9119 226.01 17.8079C225.546 18.6879 224.962 19.4319 224.258 20.0399C223.666 20.5519 223.018 20.9679 222.314 21.2879C221.626 21.5919 220.866 21.7439 220.034 21.7439C219.442 21.7439 218.93 21.6559 218.498 21.4799C218.082 21.3039 217.738 21.0799 217.466 20.8079C217.21 20.5039 216.994 20.1359 216.818 19.7039C216.658 19.2719 216.578 18.6159 216.578 17.7359V9.09595H214.058V7.39195H228.146ZM223.778 7.39195C223.762 6.73595 223.578 6.27995 223.226 6.02395C222.89 5.76795 222.37 5.63995 221.666 5.63995H219.602C218.562 5.63995 217.754 5.56795 217.178 5.42394C216.618 5.27994 216.138 5.05594 215.738 4.75195C215.306 4.43195 214.978 4.02395 214.754 3.52795C214.546 3.01594 214.442 2.43995 214.442 1.79995C214.442 1.59195 214.45 1.38395 214.466 1.17595C214.498 0.967945 214.53 0.743945 214.562 0.503945L216.338 0.623945C216.306 0.799945 216.282 0.967945 216.266 1.12795C216.25 1.27195 216.242 1.42395 216.242 1.58395C216.242 1.93595 216.274 2.24794 216.338 2.51995C216.418 2.79195 216.538 3.01595 216.698 3.19195C216.922 3.44795 217.242 3.64795 217.658 3.79195C218.09 3.91995 218.698 3.98394 219.482 3.98394H220.154C220.426 3.98394 220.746 3.99995 221.114 4.03195C221.482 4.06395 221.946 4.13595 222.506 4.24795C223.066 4.34395 223.762 4.49595 224.594 4.70395C224.866 4.95995 225.082 5.31194 225.242 5.75994C225.402 6.19195 225.49 6.73595 225.506 7.39195H223.778ZM214.538 7.39195V9.09595H212.018V22.3199H210.17V9.09595H207.674V7.39195H209.882C209.626 7.08795 209.362 6.76795 209.09 6.43194C208.834 6.09595 208.602 5.75995 208.394 5.42394C208.938 4.47995 209.522 3.62395 210.146 2.85595C210.77 2.07195 211.506 1.45595 212.354 1.00794C213.202 0.543945 214.226 0.311945 215.426 0.311945C216.562 0.311945 217.61 0.487945 218.57 0.839945C219.546 1.19195 220.514 1.69595 221.474 2.35195C222.45 3.00795 223.49 3.79195 224.594 4.70395L223.634 5.80795C222.802 5.15195 222.034 4.59195 221.33 4.12795C220.642 3.64795 219.994 3.25595 219.386 2.95195C218.778 2.63195 218.178 2.39995 217.586 2.25595C216.994 2.09595 216.37 2.01595 215.714 2.01595C214.834 2.01595 214.074 2.17595 213.434 2.49595C212.794 2.79995 212.234 3.23195 211.754 3.79195C211.29 4.33595 210.858 4.96795 210.458 5.68795C210.586 5.92795 210.762 6.19195 210.986 6.47995C211.21 6.76795 211.466 7.07195 211.754 7.39195H214.538ZM245.33 7.39195V9.09595H242.81V22.3199H240.962V12.8159L241.49 14.3519C240.834 13.3919 240.234 12.5759 239.69 11.9039C239.146 11.2159 238.626 10.6559 238.13 10.2239C237.65 9.79195 237.162 9.47995 236.666 9.28795C236.17 9.07995 235.634 8.97594 235.058 8.97594C234.418 8.97594 233.834 9.09595 233.306 9.33595C232.794 9.57595 232.322 9.89595 231.89 10.2959C231.458 10.6959 231.058 11.1279 230.69 11.5919L230.498 11.6399C230.754 11.4799 231.002 11.3599 231.242 11.2799C231.498 11.1999 231.778 11.1599 232.082 11.1599C233.01 11.1599 233.69 11.4159 234.122 11.9279C234.554 12.4239 234.77 13.0399 234.77 13.7759C234.77 13.9519 234.762 14.1199 234.746 14.2799C234.73 14.4399 234.706 14.5599 234.674 14.6399L234.266 14.4959C234.458 14.2879 234.642 14.0879 234.818 13.8959C234.994 13.7039 235.178 13.5119 235.37 13.3199C235.578 13.1279 235.786 12.9279 235.994 12.7199L238.97 9.93595L240.146 11.2079L233.33 17.6399L231.914 16.3199L233.882 14.4479L233.018 15.4799L232.298 16.0319C232.538 15.7599 232.738 15.4719 232.898 15.1679C233.074 14.8479 233.162 14.4879 233.162 14.0879C233.162 13.6879 233.042 13.3679 232.802 13.1279C232.562 12.8879 232.21 12.7679 231.746 12.7679C231.49 12.7679 231.242 12.7999 231.002 12.8639C230.762 12.9279 230.514 13.0399 230.258 13.1999L228.434 11.4719C229.074 10.6239 229.73 9.88795 230.402 9.26395C231.074 8.62395 231.778 8.12795 232.514 7.77595C233.25 7.40795 234.042 7.22395 234.89 7.22395C235.786 7.22395 236.594 7.39195 237.314 7.72795C238.034 8.06395 238.73 8.56795 239.402 9.23995C240.074 9.89595 240.778 10.7279 241.514 11.7359L241.082 11.6159C241.034 11.2319 241.002 10.8159 240.986 10.3679C240.97 9.91995 240.962 9.43995 240.962 8.92795V5.80795H242.234L242.786 7.39195H245.33ZM261.694 7.39195V9.09595H259.174V22.3199H257.326V13.8479L257.878 15.3599C257.382 14.7039 256.95 14.1999 256.582 13.8479C256.23 13.4959 255.886 13.3199 255.55 13.3199C255.326 13.3199 255.118 13.3839 254.926 13.5119C254.734 13.6399 254.518 13.8879 254.278 14.2559C254.038 14.6079 253.718 15.1519 253.318 15.8879C252.886 16.6719 252.494 17.3199 252.142 17.8319C251.79 18.3279 251.414 18.6959 251.014 18.9359C250.63 19.1599 250.158 19.2719 249.598 19.2719C249.166 19.2719 248.75 19.1839 248.35 19.0079C247.966 18.8319 247.574 18.5439 247.174 18.1439C246.79 17.7279 246.374 17.1679 245.926 16.4639L247.39 15.5759C247.822 16.3439 248.182 16.8479 248.47 17.0879C248.758 17.3279 249.07 17.4479 249.406 17.4479C249.678 17.4479 249.934 17.3679 250.174 17.2079C250.43 17.0319 250.702 16.7359 250.99 16.3199C251.294 15.9039 251.638 15.3359 252.022 14.6159L252.574 13.8239C252.99 12.9599 253.39 12.3679 253.774 12.0479C254.158 11.7119 254.582 11.5439 255.046 11.5439C255.574 11.5439 256.046 11.6959 256.462 11.9999C256.894 12.2879 257.39 12.7359 257.95 13.3439L257.47 13.3679C257.406 12.9999 257.366 12.6559 257.35 12.3359C257.334 11.9999 257.326 11.6639 257.326 11.3279V9.09595H244.846V7.39195H261.694ZM251.59 15.8159C251.43 14.7279 251.262 13.8639 251.086 13.2239C250.926 12.5839 250.638 12.0879 250.222 11.7359C249.822 11.3679 249.278 11.0959 248.59 10.9199C247.902 10.7279 247.038 10.5679 245.998 10.4399L246.358 8.61595L247.654 9.09595C248.566 9.23995 249.326 9.42395 249.934 9.64795C250.542 9.87195 251.03 10.1679 251.398 10.5359C251.782 10.8879 252.07 11.3279 252.262 11.8559C252.454 12.3839 252.582 13.0239 252.646 13.7759L251.59 15.8159Z" fill="white"></path></svg>