<svg xmlns="http://www.w3.org/2000/svg" width="20" height="20" viewBox="0 0 20 20" fill="none"><path d="M12.8975 10.7413L14.16 17.8463C14.1741 17.93 14.1624 18.016 14.1263 18.0928C14.0903 18.1696 14.0316 18.2336 13.9583 18.2762C13.8849 18.3187 13.8002 18.3379 13.7156 18.3311C13.6311 18.3243 13.5506 18.2918 13.485 18.238L10.5016 15.9988C10.3576 15.8912 10.1827 15.8331 10.0029 15.8331C9.82312 15.8331 9.64816 15.8912 9.50414 15.9988L6.51581 18.2372C6.45024 18.2909 6.36986 18.3233 6.28539 18.3301C6.20092 18.3369 6.11637 18.3179 6.04303 18.2754C5.96969 18.2329 5.91104 18.1691 5.87491 18.0924C5.83878 18.0158 5.82688 17.9299 5.84081 17.8463L7.10248 10.7413" stroke="#0E4B3A" stroke-width="1.66667" stroke-linecap="round" stroke-linejoin="round"></path><path d="M10 11.6666C12.7614 11.6666 15 9.42805 15 6.66663C15 3.9052 12.7614 1.66663 10 1.66663C7.23858 1.66663 5 3.9052 5 6.66663C5 9.42805 7.23858 11.6666 10 11.6666Z" stroke="#0E4B3A" stroke-width="1.66667" stroke-linecap="round" stroke-linejoin="round"></path></svg>