<svg xmlns="http://www.w3.org/2000/svg" width="36" height="36" viewBox="0 0 36 36" fill="none"><path d="M9 13.5H6.75C5.75544 13.5 4.80161 13.1049 4.09835 12.4017C3.39509 11.6984 3 10.7446 3 9.75C3 8.75544 3.39509 7.80161 4.09835 7.09835C4.80161 6.39509 5.75544 6 6.75 6H9" stroke="#0E4B3A" stroke-width="3" stroke-linecap="round" stroke-linejoin="round"></path><path d="M27 13.5H29.25C30.2446 13.5 31.1984 13.1049 31.9017 12.4017C32.6049 11.6984 33 10.7446 33 9.75C33 8.75544 32.6049 7.80161 31.9017 7.09835C31.1984 6.39509 30.2446 6 29.25 6H27" stroke="#0E4B3A" stroke-width="3" stroke-linecap="round" stroke-linejoin="round"></path><path d="M6 33H30" stroke="#0E4B3A" stroke-width="3" stroke-linecap="round" stroke-linejoin="round"></path><path d="M15 21.9902V25.5002C15 26.3252 14.295 26.9702 13.545 27.3152C11.775 28.1252 10.5 30.3602 10.5 33.0002" stroke="#0E4B3A" stroke-width="3" stroke-linecap="round" stroke-linejoin="round"></path><path d="M21 21.9902V25.5002C21 26.3252 21.705 26.9702 22.455 27.3152C24.225 28.1252 25.5 30.3602 25.5 33.0002" stroke="#0E4B3A" stroke-width="3" stroke-linecap="round" stroke-linejoin="round"></path><path d="M27 3H9V13.5C9 15.8869 9.94821 18.1761 11.636 19.864C13.3239 21.5518 15.6131 22.5 18 22.5C20.3869 22.5 22.6761 21.5518 24.364 19.864C26.0518 18.1761 27 15.8869 27 13.5V3Z" stroke="#0E4B3A" stroke-width="3" stroke-linecap="round" stroke-linejoin="round"></path></svg>