<svg xmlns="http://www.w3.org/2000/svg" width="20" height="20" viewBox="0 0 20 20" fill="none"><g clip-path="url(#clip0_8_7516)"><path d="M4.99999 7.50004H3.74999C3.19746 7.50004 2.66755 7.28055 2.27685 6.88985C1.88615 6.49915 1.66666 5.96924 1.66666 5.41671C1.66666 4.86417 1.88615 4.33427 2.27685 3.94357C2.66755 3.55287 3.19746 3.33337 3.74999 3.33337H4.99999" stroke="#0E4B3A" stroke-width="1.66667" stroke-linecap="round" stroke-linejoin="round"></path><path d="M15 7.50004H16.25C16.8025 7.50004 17.3324 7.28055 17.7231 6.88985C18.1138 6.49915 18.3333 5.96924 18.3333 5.41671C18.3333 4.86417 18.1138 4.33427 17.7231 3.94357C17.3324 3.55287 16.8025 3.33337 16.25 3.33337H15" stroke="#0E4B3A" stroke-width="1.66667" stroke-linecap="round" stroke-linejoin="round"></path><path d="M3.33334 18.3334H16.6667" stroke="#0E4B3A" stroke-width="1.66667" stroke-linecap="round" stroke-linejoin="round"></path><path d="M8.33334 12.2168V14.1668C8.33334 14.6251 7.94168 14.9835 7.52501 15.1751C6.54168 15.6251 5.83334 16.8668 5.83334 18.3335" stroke="#0E4B3A" stroke-width="1.66667" stroke-linecap="round" stroke-linejoin="round"></path><path d="M11.6667 12.2168V14.1668C11.6667 14.6251 12.0583 14.9835 12.475 15.1751C13.4583 15.6251 14.1667 16.8668 14.1667 18.3335" stroke="#0E4B3A" stroke-width="1.66667" stroke-linecap="round" stroke-linejoin="round"></path><path d="M15 1.66663H5V7.49996C5 8.82604 5.52678 10.0978 6.46447 11.0355C7.40215 11.9732 8.67392 12.5 10 12.5C11.3261 12.5 12.5979 11.9732 13.5355 11.0355C14.4732 10.0978 15 8.82604 15 7.49996V1.66663Z" stroke="#0E4B3A" stroke-width="1.66667" stroke-linecap="round" stroke-linejoin="round"></path></g><defs><clipPath id="clip0_8_7516"><rect width="20" height="20" fill="white"></rect></clipPath></defs></svg>