<svg xmlns="http://www.w3.org/2000/svg" width="28" height="28" viewBox="0 0 28 28" fill="none"><path d="M18.6667 24.5V22.1667C18.6667 20.929 18.175 19.742 17.2998 18.8668C16.4247 17.9917 15.2377 17.5 14 17.5H7C5.76233 17.5 4.57534 17.9917 3.70017 18.8668C2.825 19.742 2.33334 20.929 2.33334 22.1667V24.5" stroke="#E5FF00" stroke-width="2.33333" stroke-linecap="round" stroke-linejoin="round"></path><path d="M10.5 12.8333C13.0773 12.8333 15.1667 10.744 15.1667 8.16667C15.1667 5.58934 13.0773 3.5 10.5 3.5C7.92267 3.5 5.83334 5.58934 5.83334 8.16667C5.83334 10.744 7.92267 12.8333 10.5 12.8333Z" stroke="#E5FF00" stroke-width="2.33333" stroke-linecap="round" stroke-linejoin="round"></path><path d="M25.6667 24.4999V22.1666C25.6659 21.1326 25.3217 20.1282 24.6883 19.311C24.0548 18.4938 23.1678 17.9101 22.1667 17.6516" stroke="#E5FF00" stroke-width="2.33333" stroke-linecap="round" stroke-linejoin="round"></path><path d="M18.6667 3.65161C19.6705 3.90863 20.5602 4.49243 21.1956 5.31097C21.8309 6.12952 22.1758 7.13625 22.1758 8.17244C22.1758 9.20864 21.8309 10.2154 21.1956 11.0339C20.5602 11.8525 19.6705 12.4363 18.6667 12.6933" stroke="#E5FF00" stroke-width="2.33333" stroke-linecap="round" stroke-linejoin="round"></path></svg>