<svg xmlns="http://www.w3.org/2000/svg" width="28" height="28" viewBox="0 0 28 28" fill="none"><path d="M7 10.5001H5.25C4.47645 10.5001 3.73459 10.1928 3.18761 9.64581C2.64063 9.09883 2.33334 8.35696 2.33334 7.58341C2.33334 6.80987 2.64063 6.068 3.18761 5.52102C3.73459 4.97404 4.47645 4.66675 5.25 4.66675H7" stroke="#E5FF00" stroke-width="2.33333" stroke-linecap="round" stroke-linejoin="round"></path><path d="M21 10.5001H22.75C23.5235 10.5001 24.2654 10.1928 24.8124 9.64581C25.3594 9.09883 25.6667 8.35696 25.6667 7.58341C25.6667 6.80987 25.3594 6.068 24.8124 5.52102C24.2654 4.97404 23.5235 4.66675 22.75 4.66675H21" stroke="#E5FF00" stroke-width="2.33333" stroke-linecap="round" stroke-linejoin="round"></path><path d="M4.66666 25.6667H23.3333" stroke="#E5FF00" stroke-width="2.33333" stroke-linecap="round" stroke-linejoin="round"></path><path d="M11.6667 17.1035V19.8335C11.6667 20.4752 11.1183 20.9768 10.535 21.2452C9.15833 21.8752 8.16666 23.6135 8.16666 25.6668" stroke="#E5FF00" stroke-width="2.33333" stroke-linecap="round" stroke-linejoin="round"></path><path d="M16.3333 17.1035V19.8335C16.3333 20.4752 16.8817 20.9768 17.465 21.2452C18.8417 21.8752 19.8333 23.6135 19.8333 25.6668" stroke="#E5FF00" stroke-width="2.33333" stroke-linecap="round" stroke-linejoin="round"></path><path d="M21 2.33325H7V10.4999C7 12.3564 7.7375 14.1369 9.05025 15.4497C10.363 16.7624 12.1435 17.4999 14 17.4999C15.8565 17.4999 17.637 16.7624 18.9497 15.4497C20.2625 14.1369 21 12.3564 21 10.4999V2.33325Z" stroke="#E5FF00" stroke-width="2.33333" stroke-linecap="round" stroke-linejoin="round"></path></svg>