<svg xmlns="http://www.w3.org/2000/svg" width="31" height="33" viewBox="0 0 31 33" fill="none"><path d="M3.00512 19.5039C2.72126 19.5049 2.44296 19.4253 2.20255 19.2744C1.96213 19.1235 1.76947 18.9074 1.64694 18.6514C1.52441 18.3953 1.47705 18.1098 1.51036 17.8279C1.54367 17.546 1.65629 17.2793 1.83512 17.0589L16.6851 1.75891C16.7965 1.63033 16.9483 1.54344 17.1156 1.51251C17.2829 1.48157 17.4557 1.50843 17.6057 1.58866C17.7557 1.6689 17.874 1.79775 17.9411 1.95407C18.0082 2.11039 18.0202 2.28488 17.9751 2.44891L15.0951 11.4789C15.0102 11.7062 14.9817 11.9507 15.012 12.1914C15.0423 12.4321 15.1306 12.6619 15.2693 12.861C15.4079 13.0602 15.5928 13.2227 15.808 13.3346C16.0233 13.4466 16.2625 13.5047 16.5051 13.5039H27.0051C27.289 13.5029 27.5673 13.5825 27.8077 13.7334C28.0481 13.8843 28.2408 14.1004 28.3633 14.3564C28.4858 14.6125 28.5332 14.898 28.4999 15.1799C28.4666 15.4618 28.3539 15.7285 28.1751 15.9489L13.3251 31.2489C13.2137 31.3775 13.0619 31.4644 12.8946 31.4953C12.7274 31.5262 12.5545 31.4994 12.4045 31.4192C12.2545 31.3389 12.1362 31.2101 12.0691 31.0537C12.002 30.8974 11.99 30.7229 12.0351 30.5589L14.9151 21.5289C15 21.3016 15.0286 21.0571 14.9982 20.8164C14.9679 20.5757 14.8796 20.3459 14.741 20.1468C14.6023 19.9476 14.4175 19.7851 14.2022 19.6732C13.9869 19.5612 13.7477 19.5031 13.5051 19.5039H3.00512Z" stroke="#0E4B3A" stroke-width="3" stroke-linecap="round" stroke-linejoin="round"></path></svg>