<svg xmlns="http://www.w3.org/2000/svg" width="15" height="15" viewBox="0 0 15 15" fill="none"><path d="M13.9254 10.6132V12.6132C13.9262 12.7989 13.8881 12.9827 13.8138 13.1528C13.7394 13.3229 13.6303 13.4756 13.4935 13.6011C13.3566 13.7267 13.1951 13.8222 13.0192 13.8817C12.8434 13.9412 12.657 13.9633 12.4721 13.9466C10.4206 13.7237 8.45008 13.0227 6.71875 11.8999C5.10796 10.8763 3.7423 9.51068 2.71875 7.8999C1.59206 6.16071 0.890908 4.18056 0.672079 2.1199C0.655419 1.93555 0.677329 1.74974 0.736413 1.57432C0.795496 1.39889 0.89046 1.23769 1.01526 1.10098C1.14005 0.964271 1.29195 0.855041 1.46127 0.78025C1.6306 0.705458 1.81364 0.666743 1.99875 0.666569H3.99875C4.32228 0.663384 4.63594 0.777954 4.88125 0.988924C5.12657 1.19989 5.2868 1.49287 5.33208 1.81324C5.41649 2.45328 5.57305 3.08172 5.79875 3.68657C5.88844 3.92518 5.90785 4.18451 5.85468 4.43382C5.80151 4.68313 5.67799 4.91198 5.49875 5.09324L4.65208 5.9399C5.60112 7.60893 6.98305 8.99087 8.65208 9.9399L9.49875 9.09324C9.68001 8.91399 9.90885 8.79047 10.1582 8.7373C10.4075 8.68413 10.6668 8.70354 10.9054 8.79324C11.5103 9.01894 12.1387 9.17549 12.7787 9.2599C13.1026 9.30559 13.3983 9.46871 13.6098 9.71823C13.8212 9.96776 13.9335 10.2863 13.9254 10.6132Z" stroke="#0E4B3A" stroke-width="1.33333" stroke-linecap="round" stroke-linejoin="round"></path></svg>